<svg width="31" height="36" viewBox="0 0 31 36" fill="none" xmlns="http://www.w3.org/2000/svg">
<g clip-path="url(#clip0)">
<path d="M2 1H22.893" stroke="#FFCC01" stroke-opacity="0.3" stroke-width="3" stroke-linecap="round"/>
<path d="M2.02764 1V7.90453" stroke="#FFCC01" stroke-opacity="0.3" stroke-width="3" stroke-linecap="round"/>
<path d="M26.5666 4.63397V11.5385" stroke="#FFCC01" stroke-opacity="0.3" stroke-width="3" stroke-linecap="round"/>
<path d="M2.07785 7.8895L4.76278 11.5385" stroke="#FFCC01" stroke-opacity="0.3" stroke-width="3" stroke-linecap="round"/>
<path d="M3.85578 7.8895L6.54071 11.5385" stroke="#FFCC01" stroke-opacity="0.3" stroke-width="3" stroke-linecap="round"/>
<path d="M5.85599 7.8895L8.54091 11.5385" stroke="#FFCC01" stroke-opacity="0.3" stroke-width="3" stroke-linecap="round"/>
<path d="M7.63391 7.8895L10.3188 11.5385" stroke="#FFCC01" stroke-opacity="0.3" stroke-width="3" stroke-linecap="round"/>
<path d="M9.41185 7.8895L12.0968 11.5385" stroke="#FFCC01" stroke-opacity="0.3" stroke-width="3" stroke-linecap="round"/>
<path d="M14.3012 19.6683L16.9861 23.3173" stroke="#FFCC01" stroke-opacity="0.3" stroke-width="3" stroke-linecap="round"/>
<path d="M15.1902 18.5571L18.3015 22.5575" stroke="#FFCC01" stroke-opacity="0.3" stroke-width="3" stroke-linecap="round"/>
<path d="M16.0791 17.2237L19.1905 21.2241" stroke="#FFCC01" stroke-opacity="0.3" stroke-width="3" stroke-linecap="round"/>
<path d="M16.9681 15.8902L20.0795 19.8906" stroke="#FFCC01" stroke-opacity="0.3" stroke-width="3" stroke-linecap="round"/>
<path d="M18.0793 14.779L21.1907 18.7794" stroke="#FFCC01" stroke-opacity="0.3" stroke-width="3" stroke-linecap="round"/>
<path d="M18.9683 13.4456L22.0797 17.4459" stroke="#FFCC01" stroke-opacity="0.3" stroke-width="3" stroke-linecap="round"/>
<path d="M19.8572 12.1121L22.9686 16.1125" stroke="#FFCC01" stroke-opacity="0.3" stroke-width="3" stroke-linecap="round"/>
<path d="M20.9684 10.7787L24.0798 14.779" stroke="#FFCC01" stroke-opacity="0.3" stroke-width="3" stroke-linecap="round"/>
<path d="M22.0797 9.44522L25.1911 13.4456" stroke="#FFCC01" stroke-opacity="0.3" stroke-width="3" stroke-linecap="round"/>
<path d="M11.412 7.8895L13.5233 10.5564" stroke="#FFCC01" stroke-opacity="0.3" stroke-width="3" stroke-linecap="round"/>
<path d="M13.4122 20.7796L15.5235 23.4465" stroke="#FFCC01" stroke-opacity="0.3" stroke-width="3" stroke-linecap="round"/>
<path d="M13.4122 8.11176L14.5234 9.44521" stroke="#FFCC01" stroke-opacity="0.3" stroke-width="3" stroke-linecap="round"/>
<path d="M12.7455 22.113L13.8567 23.4465" stroke="#FFCC01" stroke-opacity="0.3" stroke-width="3" stroke-linecap="round"/>
<path d="M22.9326 1L26.5245 4.667" stroke="#FFCC01" stroke-opacity="0.3" stroke-width="3" stroke-linecap="round"/>
<path d="M22.9686 2.77792L26.5606 6.44492" stroke="#FFCC01" stroke-opacity="0.3" stroke-width="3" stroke-linecap="round"/>
<path d="M22.7464 4.33365L26.3383 8.00065" stroke="#FFCC01" stroke-opacity="0.3" stroke-width="3" stroke-linecap="round"/>
<path d="M22.9686 6.33383L26.5606 10.0008" stroke="#FFCC01" stroke-opacity="0.3" stroke-width="3" stroke-linecap="round"/>
<path d="M22.9326 8.26794L25.8398 11.5385" stroke="#FFCC01" stroke-opacity="0.3" stroke-width="3" stroke-linecap="round"/>
<path d="M27.9691 26.7801V34.3363" stroke="#FFCC01" stroke-opacity="0.3" stroke-width="3" stroke-linecap="round"/>
<path d="M24.4132 23.4465L28.0201 26.8011" stroke="#FFCC01" stroke-opacity="0.3" stroke-width="3" stroke-linecap="round"/>
<path d="M24.3021 30.0026L27.9691 34.3363" stroke="#FFCC01" stroke-opacity="0.3" stroke-width="3" stroke-linecap="round"/>
<path d="M24.3021 27.8913L27.9691 32.225" stroke="#FFCC01" stroke-opacity="0.3" stroke-width="3" stroke-linecap="round"/>
<path d="M24.3021 25.8911L27.9691 30.2249" stroke="#FFCC01" stroke-opacity="0.3" stroke-width="3" stroke-linecap="round"/>
<path d="M24.5243 24.3354L28.1913 28.6692" stroke="#FFCC01" stroke-opacity="0.3" stroke-width="3" stroke-linecap="round"/>
<path d="M3.52242 30.0026L6.85605 34.3363" stroke="#FFCC01" stroke-opacity="0.3" stroke-width="3" stroke-linecap="round"/>
<path d="M5.18925 29.8915L8.52289 34.2252" stroke="#FFCC01" stroke-opacity="0.3" stroke-width="3" stroke-linecap="round"/>
<path d="M6.96718 30.0026L10.3008 34.3363" stroke="#FFCC01" stroke-opacity="0.3" stroke-width="3" stroke-linecap="round"/>
<path d="M8.63399 29.8915L11.9676 34.2252" stroke="#FFCC01" stroke-opacity="0.3" stroke-width="3" stroke-linecap="round"/>
<path d="M10.523 30.0026L13.8567 34.3363" stroke="#FFCC01" stroke-opacity="0.3" stroke-width="3" stroke-linecap="round"/>
<path d="M12.1899 29.8915L15.5235 34.2252" stroke="#FFCC01" stroke-opacity="0.3" stroke-width="3" stroke-linecap="round"/>
<path d="M13.9678 30.0026L17.3014 34.3363" stroke="#FFCC01" stroke-opacity="0.3" stroke-width="3" stroke-linecap="round"/>
<path d="M15.6346 29.8915L18.9682 34.2252" stroke="#FFCC01" stroke-opacity="0.3" stroke-width="3" stroke-linecap="round"/>
<path d="M17.4126 30.0026L20.7462 34.3363" stroke="#FFCC01" stroke-opacity="0.3" stroke-width="3" stroke-linecap="round"/>
<path d="M19.0794 29.8915L22.413 34.2252" stroke="#FFCC01" stroke-opacity="0.3" stroke-width="3" stroke-linecap="round"/>
<path d="M20.8573 30.0026L24.1909 34.3363" stroke="#FFCC01" stroke-opacity="0.3" stroke-width="3" stroke-linecap="round"/>
<path d="M22.5241 29.8915L25.8578 34.2252" stroke="#FFCC01" stroke-opacity="0.3" stroke-width="3" stroke-linecap="round"/>
<path d="M2.02764 7.95511H15.1099" stroke="#FFCC01" stroke-opacity="0.3" stroke-width="3" stroke-linecap="round"/>
<path d="M4.76277 11.5385H12.301" stroke="#FFCC01" stroke-opacity="0.3" stroke-width="3" stroke-linecap="round"/>
<path d="M22.893 1V7.62392" stroke="#FFCC01" stroke-opacity="0.3" stroke-width="3" stroke-linecap="round"/>
<path d="M24.3862 29.9886L3.48122 29.9886" stroke="#FFCC01" stroke-opacity="0.3" stroke-width="3" stroke-linecap="round"/>
<path d="M27.8481 34.4324L6.94315 34.4325" stroke="#FFCC01" stroke-opacity="0.3" stroke-width="3" stroke-linecap="round"/>
<path d="M24.3465 30.0717L24.3465 23.5306" stroke="#FFCC01" stroke-opacity="0.3" stroke-width="3" stroke-linecap="round"/>
<path d="M3.48122 30.0717L3.48122 23.3647" stroke="#FFCC01" stroke-opacity="0.3" stroke-width="3" stroke-linecap="round"/>
<path d="M23.1638 8.10205L11.5773 23.0297" stroke="#FFCC01" stroke-opacity="0.3" stroke-width="3" stroke-linecap="round"/>
<path d="M26.2032 11.5385L17.845 23.1672" stroke="#FFCC01" stroke-opacity="0.3" stroke-width="3" stroke-linecap="round"/>
<path d="M11.0445 23.4643H24.3862" stroke="#FFCC01" stroke-opacity="0.3" stroke-width="3" stroke-linecap="round"/>
<path d="M15.4947 8.10206L3.52243 23.3353" stroke="#FFCC01" stroke-opacity="0.3" stroke-width="3" stroke-linecap="round"/>
</g>
<defs>
<clipPath id="clip0">
<rect width="31" height="36" fill="white"/>
</clipPath>
</defs>
</svg>
